<?xml version="1.0" encoding="utf-8"?>
<!-- Generator: Adobe Illustrator 18.0.0, SVG Export Plug-In . SVG Version: 6.00 Build 0)  -->
<!DOCTYPE svg PUBLIC "-//W3C//DTD SVG 1.1//EN" "http://www.w3.org/Graphics/SVG/1.1/DTD/svg11.dtd">
<svg version="1.1" id="Layer_1" xmlns="http://www.w3.org/2000/svg" xmlns:xlink="http://www.w3.org/1999/xlink" x="0px" y="0px"
	 viewBox="0 464.1 1920 273.8" style="enable-background:new 0 464.1 1920 273.8;" xml:space="preserve">
<style type="text/css">
	.st0{fill:#FFFFFF;}
</style>
<g id="Layer_1_1_">
	<g>
		<path class="st0" d="M84.1,719.7c0,5.1,2.6,8,5.1,8c8.7,0,6.2-13.1,16.3-13.1c7.7,0,30.6,15.3,64.3,15.3c33,0,85.8-21.8,85.8-77.1
			c0-90.2-138.9-64-138.9-132.7c0-22.9,17.8-41.8,42.2-41.8c34.9,0,57.1,22.2,72,70.1c4.7,15.3,5.1,17.8,9.1,17.8
			c4,0,4.3-3.3,4.3-6.2c0-3.3,0-7.2-6.5-80.4c-0.4-4-1.8-6.5-5.1-6.5c-8,0-2.9,12.4-13.8,12.4c-6.9,0-27.3-13.8-60.7-13.8
			c-36.3,0-72,25.9-72,62.6c0.1,91.8,139,51.1,139,135.8c0,32-24.7,50.9-57.4,50.9c-26.9,0-56.3-16-69.1-76.3
			c-4.3-20.7-3.6-27.6-9.8-27.6c-4.7,0-4.7,3.6-4.7,9.5L84.1,719.7L84.1,719.7z"/>
		<polygon class="st0" points="318.4,692.9 318.4,512.4 282.2,512.4 282.2,520.8 309.4,520.8 309.4,684.4 282.2,684.4 282.2,692.9 
					"/>
		<polygon class="st0" points="49.5,692.9 49.5,684.4 22.3,684.4 22.3,520.8 49.5,520.8 49.5,512.4 13.2,512.4 13.2,692.9 		"/>
	</g>
	<path class="st0" d="M366.7,594c0,1.4,0.7,2.3,1.4,2.3c2.5,0,1.8-3.7,4.6-3.7c2.1,0,8.6,4.3,18.2,4.3c9.4,0,24.2-6.2,24.2-21.7
		c0-25.5-39.2-18.1-39.2-37.5c0-6.5,5-11.8,11.9-11.8c9.9,0,16.1,6.3,20.3,19.8c1.4,4.3,1.4,5,2.6,5c1.1,0,1.2-0.9,1.2-1.8
		c0-0.9,0-2.1-1.8-22.7c-0.1-1.1-0.5-1.8-1.4-1.8c-2.3,0-0.9,3.5-3.9,3.5c-2,0-7.7-3.9-17.2-3.9c-10.3,0-20.3,7.3-20.3,17.7
		c0,26,39.2,14.5,39.2,38.4c0,9-7,14.4-16.2,14.4c-7.6,0-15.9-4.5-19.5-21.6c-1.2-5.9-1.1-7.8-2.8-7.8c-1.4,0-1.4,1.1-1.4,2.7
		L366.7,594L366.7,594z M438,547.8c-14.3,5.5-16.8,3.7-16.8,5.5c0,2.3,7.6-0.5,7.6,6.3V588c0,6.5-7.6,3.4-7.6,6.2
		c0,0.9,0.5,1.2,1.6,1.2c2.6,0,5-0.2,10.6-0.2c5.6,0,8,0.2,10.6,0.2c1.1,0,1.6-0.3,1.6-1.2c0-2.8-7.6,0.3-7.6-6.2V547.8L438,547.8z
		 M432.6,540.8c3.8,0,5.6-2.3,5.6-5.6c0-3.4-1.8-5.6-5.6-5.6s-5.6,2.3-5.6,5.6C426.9,538.5,428.8,540.8,432.6,540.8L432.6,540.8z
		 M498.8,559.5c7.1-5.1,11.2-6.3,14.2-6.3c4.3,0,6.3,2.1,6.3,6.6v28.4c0,6.5-7.6,3.4-7.6,6.2c0,0.9,0.5,1.2,1.6,1.2
		c2.6,0,5-0.2,10.6-0.2s8,0.2,10.6,0.2c1.1,0,1.6-0.3,1.6-1.2c0-2.8-7.6,0.3-7.6-6.2v-30.8c0-5.9-3.6-9.7-11.1-9.5
		c-7.1,0.1-11.4,4.1-18.8,9.7c-0.7-6-4.4-9.7-11-9.7c-7.7,0-15,5.8-18.7,9.5v-9.5c-14.1,5.5-16.8,3.7-16.8,5.5
		c0,2.3,7.6-0.5,7.6,6.3v28.4c0,6.5-7.6,3.4-7.6,6.2c0,0.9,0.5,1.2,1.6,1.2c2.6,0,5-0.2,10.6-0.2s8,0.2,10.6,0.2
		c1.1,0,1.6-0.3,1.6-1.2c0-2.8-7.6,0.3-7.6-6.2v-27.9c5-4.7,9.2-7,13.8-7c4.4,0,6.8,2.3,6.8,6.6v28.4c0,6.5-7.6,3.4-7.6,6.2
		c0,0.9,0.5,1.2,1.6,1.2c2.6,0,5-0.2,10.6-0.2c5.6,0,8,0.2,10.6,0.2c1.1,0,1.6-0.3,1.6-1.2c0-2.8-7.6,0.3-7.6-6.2L498.8,559.5
		L498.8,559.5z M879.5,559.5c7.1-5.1,11.2-6.3,14.2-6.3c4.3,0,6.3,2.1,6.3,6.6v28.4c0,6.5-7.6,3.4-7.6,6.2c0,0.9,0.5,1.2,1.6,1.2
		c2.6,0,5-0.2,10.6-0.2c5.6,0,8,0.2,10.6,0.2c1.1,0,1.6-0.3,1.6-1.2c0-2.8-7.6,0.3-7.6-6.2v-30.8c0-5.9-3.6-9.7-11.1-9.5
		c-7.1,0.1-11.4,4.1-18.8,9.7c-0.7-6-4.4-9.7-11-9.7c-7.7,0-15,5.8-18.7,9.5v-9.5c-14.1,5.5-16.8,3.7-16.8,5.5
		c0,2.3,7.6-0.5,7.6,6.3v28.4c0,6.5-7.6,3.4-7.6,6.2c0,0.9,0.5,1.2,1.6,1.2c2.6,0,5-0.2,10.6-0.2s8,0.2,10.6,0.2
		c1.1,0,1.6-0.3,1.6-1.2c0-2.8-7.6,0.3-7.6-6.2v-27.9c5-4.7,9.2-7,13.8-7c4.4,0,6.8,2.3,6.8,6.6v28.4c0,6.5-7.6,3.4-7.6,6.2
		c0,0.9,0.5,1.2,1.6,1.2c2.6,0,5-0.2,10.6-0.2s8,0.2,10.6,0.2c1.1,0,1.6-0.3,1.6-1.2c0-2.8-7.6,0.3-7.6-6.2V559.5L879.5,559.5z
		 M575.7,596.1c11.3-4.8,17.3-3.5,17.3-5.3c0-2.6-8,0.3-8-7v-36c-11.3,4.8-17.3,3.5-17.3,5.3c0,2.6,8-0.3,8,7v24.4
		c-5,4.1-9,6.2-14.8,6.2c-5.3,0-7-2.5-7-6.8v-36.2c-11.3,4.8-17.3,3.5-17.3,5.3c0,2.6,8-0.3,8,7v25.4c0,6,3.3,10.6,11.6,10.6
		c7.7,0,14.5-5.3,19.4-9V596.1L575.7,596.1z M615.6,520.3c-14.3,5.5-17.5,3.7-17.5,5.5c0,2.3,8.2-0.5,8.2,6.3V588
		c0,6.5-7.6,3.4-7.6,6.2c0,0.9,0.5,1.2,1.6,1.2c2.6,0,5-0.2,10.6-0.2s8,0.2,10.6,0.2c1.1,0,1.6-0.3,1.6-1.2c0-2.8-7.6,0.3-7.6-6.2
		V520.3L615.6,520.3z M665.5,558.4c0-7.3-4.6-10.6-11.9-10.6c-9.5,0-23.9,8.3-23.9,14.6c0,2.5,1.4,4.3,3.4,4.3
		c11,0,5.9-16.4,18.1-16.4c3.2,0,5,1.2,5,4.4v12c-24.7,9.5-28.1,12.7-28.1,19.3c0,5.8,4.3,10.1,11,10.1c5.1,0,11.3-2.5,17.3-7.5
		c0.2,3.4,2.3,7.5,7.3,7.5c5.5,0,11-6,11-6.9c0-0.6-0.4-0.9-0.9-0.9c-0.9,0-2.8,3.5-5.8,3.5c-1.6,0-2.7-1.1-2.7-2.8V558.4
		L665.5,558.4z M656.2,586c-5.8,5-10.4,6.3-12.5,6.3c-3.5,0-5.8-2.3-5.8-8.2c0-6.6,3.4-9.7,18.3-15L656.2,586L656.2,586z
		 M677.9,573.3c0,13.1,10.2,22.8,22.8,22.8c15.6,0,21.2-13.1,21.2-15.7c0-0.9-0.3-1.1-0.9-1.1c-1.1,0-1.2,2.3-4.2,5
		c-3.1,2.7-7.9,4.7-12.4,4.7c-11,0-18-8.8-18-20.7c0-10.4,7-18,14.8-18c6.8,0,10.4,3.7,10.4,8.3c0,2-0.6,2.8-0.6,5
		c0,5,2.5,6.7,5,6.7c3.2,0,5.6-2,5.6-6.9c0-9-9.7-15.6-20.1-15.6C689,547.8,677.9,557.9,677.9,573.3L677.9,573.3z M735.7,588.1
		c0,6.5-7.6,3.4-7.6,6.2c0,0.9,0.5,1.2,1.6,1.2c2.6,0,5-0.2,10.6-0.2c5.6,0,8,0.2,10.6,0.2c1.1,0,1.6-0.3,1.6-1.2
		c0-2.8-7.6,0.3-7.6-6.2v-14.3c0-11.2,4-18,8.3-18c3.8,0,3.4,2.5,6.9,2.5c2.8,0,5.3-1.6,5.3-5c0-3.5-2.3-5.5-6.3-5.5
		c-4.5,0-9.2,2.5-13.9,13.4H745v-13.4c-11.3,4.8-17.3,3.5-17.3,5.3c0,2.6,8-0.3,8,7L735.7,588.1L735.7,588.1z M811,596.1
		c11.3-4.8,17.3-3.5,17.3-5.3c0-2.6-8,0.3-8-7v-36c-11.3,4.8-17.3,3.5-17.3,5.3c0,2.6,8-0.3,8,7v24.4c-5,4.1-9,6.2-14.8,6.2
		c-5.3,0-7-2.5-7-6.8v-36.2c-11.3,4.8-17.3,3.5-17.3,5.3c0,2.6,8-0.3,8,7v25.4c0,6,3.3,10.6,11.6,10.6c7.7,0,14.5-5.3,19.4-9V596.1
		L811,596.1z M880.8,559.5c7.1-5.1,11.2-6.3,14.2-6.3c4.3,0,6.3,2.1,6.3,6.6v28.4c0,6.5-7.6,3.4-7.6,6.2c0,0.9,0.5,1.2,1.6,1.2
		c2.6,0,5-0.2,10.6-0.2s8,0.2,10.6,0.2c1.1,0,1.6-0.3,1.6-1.2c0-2.8-7.6,0.3-7.6-6.2v-30.8c0-5.9-3.6-9.7-11.1-9.5
		c-7.1,0.1-11.4,4.1-18.8,9.7c-0.7-6-4.4-9.7-11-9.7c-7.7,0-15,5.8-18.7,9.5v-9.5c-14.1,5.5-16.8,3.7-16.8,5.5
		c0,2.3,7.6-0.5,7.6,6.3v28.4c0,6.5-7.6,3.4-7.6,6.2c0,0.9,0.5,1.2,1.6,1.2c2.6,0,5-0.2,10.6-0.2s8,0.2,10.6,0.2
		c1.1,0,1.6-0.3,1.6-1.2c0-2.8-7.6,0.3-7.6-6.2v-27.9c5-4.7,9.2-7,13.8-7c4.4,0,6.8,2.3,6.8,6.6v28.4c0,6.5-7.6,3.4-7.6,6.2
		c0,0.9,0.5,1.2,1.6,1.2c2.6,0,5-0.2,10.6-0.2s8,0.2,10.6,0.2c1.1,0,1.6-0.3,1.6-1.2c0-2.8-7.6,0.3-7.6-6.2L880.8,559.5L880.8,559.5
		z"/>
	<g>
		<path class="st0" d="M965.2,672.8c0,1.1,0.3,1.8,0.8,2.2s1.1,0.6,1.8,0.8c0.6,0.1,1.2,0.2,1.8,0.3c0.5,0.1,0.8,0.4,0.8,0.9
			c0,0.6-0.4,0.9-1.1,0.9c-0.9,0-1.8,0-2.8-0.1s-2.4-0.1-4.3-0.1c-1.8,0-3.3,0-4.3,0.1c-1,0.1-1.9,0.1-2.8,0.1
			c-0.7,0-1.1-0.3-1.1-0.9c0-0.5,0.3-0.7,0.8-0.9c0.5-0.1,1.1-0.2,1.8-0.3c0.6-0.1,1.2-0.4,1.8-0.8c0.5-0.4,0.8-1.1,0.8-2.2v-18.9
			c0-1.1-0.3-1.9-0.8-2.3s-1.1-0.7-1.8-0.9c-0.6-0.2-1.2-0.3-1.8-0.3c-0.5-0.1-0.8-0.3-0.8-0.7c0-0.4,0.1-0.5,0.4-0.6
			s0.9-0.2,1.6-0.4c0.9-0.1,2-0.4,3.4-0.9c1.4-0.4,3.4-1.1,5.8-2v26.9H965.2z M961.6,641.3c-1.3,0-2.2-0.4-2.8-1.1
			c-0.6-0.7-0.9-1.6-0.9-2.7c0-1.1,0.3-2.1,0.9-2.7c0.6-0.7,1.6-1.1,2.8-1.1c1.3,0,2.2,0.4,2.8,1.1c0.6,0.7,0.9,1.6,0.9,2.7
			c0,1.1-0.3,2.1-0.9,2.7C963.8,640.9,962.8,641.3,961.6,641.3z"/>
		<path class="st0" d="M986.7,679.4c0,2.6-0.4,4.7-1.2,6.3c-0.9,1.6-1.8,2.9-3,3.9c-1.2,0.9-2.4,1.6-3.7,2c-1.3,0.4-2.4,0.5-3.4,0.5
			c-2.1,0-3.8-0.5-5-1.5c-1.1-1-1.8-2.1-1.8-3.3c0-0.9,0.3-1.6,0.9-2.1c0.6-0.6,1.3-0.9,2.2-0.9c1.3,0,2.1,0.3,2.7,0.9
			c0.5,0.6,0.9,1.3,1.1,2c0.2,0.7,0.5,1.4,0.8,2c0.3,0.6,0.9,0.9,1.8,0.9c1.1,0,2-0.4,2.9-1.1c0.9-0.7,1.4-1.6,1.4-2.7
			c0-0.4-0.1-0.8-0.3-1.3s-0.4-1.1-0.6-1.6c-0.2-0.6-0.4-1.2-0.6-1.8c-0.1-0.6-0.2-1.4-0.2-2.1v-25.5c0-1.1-0.3-1.9-0.8-2.3
			s-1.1-0.7-1.8-0.9c-0.6-0.1-1.2-0.3-1.8-0.3c-0.5-0.1-0.8-0.3-0.8-0.7c0-0.4,0.1-0.5,0.4-0.6s0.9-0.2,1.6-0.4
			c0.9-0.1,2-0.4,3.4-0.9c1.4-0.4,3.4-1.1,5.8-2L986.7,679.4L986.7,679.4z M983.1,641.3c-1.3,0-2.2-0.4-2.8-1.1
			c-0.6-0.7-0.9-1.6-0.9-2.7c0-1.1,0.3-2.1,0.9-2.7c0.6-0.6,1.6-1.1,2.8-1.1c1.3,0,2.2,0.4,2.8,1.1c0.6,0.7,0.9,1.6,0.9,2.7
			c0,1.1-0.3,2.1-0.9,2.7C985.3,640.9,984.4,641.3,983.1,641.3z"/>
		<path class="st0" d="M1018.4,635.5c0-1.1-0.3-1.9-0.9-2.3s-1.2-0.7-1.8-0.9c-0.7-0.1-1.3-0.3-1.8-0.3c-0.6-0.1-0.9-0.3-0.9-0.7
			c0-0.4,0.1-0.5,0.5-0.6s0.9-0.2,1.8-0.4c0.9-0.1,2.1-0.4,3.6-0.9c1.5-0.4,3.4-1.1,5.8-2v41.8c0,1.2,0.3,2.1,0.9,2.6
			c0.6,0.5,1.1,0.9,1.8,1.1c0.6,0.1,1.2,0.3,1.8,0.4s0.9,0.3,0.9,0.6c0,0.4-0.1,0.5-0.4,0.6c-0.3,0.1-0.9,0.2-1.6,0.4
			c-0.8,0.2-1.9,0.5-3.3,0.9c-1.4,0.4-3.3,1.1-5.5,2.1v-6c-0.6,0.7-1.4,1.4-2.1,2.1c-0.8,0.7-1.6,1.4-2.6,1.9
			c-0.9,0.6-1.8,1.1-2.9,1.4s-2.2,0.6-3.4,0.6c-1.8,0-3.6-0.4-5.2-1.2c-1.6-0.8-2.9-1.8-4.1-3.1c-1.1-1.3-2-2.8-2.6-4.5
			c-0.6-1.7-0.9-3.5-0.9-5.3c0-2.7,0.4-5.2,1.4-7.4c0.9-2.2,2.1-4.1,3.6-5.7c1.6-1.6,3.3-2.8,5.3-3.6c2-0.9,4.1-1.3,6.5-1.3
			c1.8,0,3.2,0.1,4.3,0.3c1.1,0.2,1.8,0.4,2.4,0.5v-11.2H1018.4z M1018.4,654.4c0.1-1.2-0.1-2.3-0.5-3.2s-0.9-1.6-1.6-2.2
			c-0.7-0.6-1.4-1-2.3-1.3s-1.8-0.4-2.7-0.4c-1.6,0-2.9,0.4-4.2,1.1c-1.3,0.7-2.3,1.8-3.2,3.1s-1.6,2.8-2.1,4.7
			c-0.5,1.8-0.8,3.8-0.8,6c0,1.4,0.1,2.8,0.5,4.3c0.4,1.5,0.9,2.8,1.7,4.1c0.8,1.2,1.8,2.2,3,3.1c1.2,0.8,2.7,1.2,4.4,1.2
			c0.9,0,1.8-0.1,2.8-0.5c0.9-0.4,1.7-0.7,2.4-1.1c0.7-0.4,1.3-0.9,1.7-1.4c0.4-0.5,0.7-0.9,0.7-1.1L1018.4,654.4L1018.4,654.4z"/>
		<path class="st0" d="M1033.8,654.8c0-1.1,0.2-2.2,0.7-3.3c0.5-1.1,1.2-2,2.1-2.8c0.9-0.9,2.1-1.5,3.5-2c1.4-0.5,2.9-0.7,4.7-0.7
			c1.6,0,3.3,0.2,5.3,0.6c1.9,0.4,3.4,0.9,4.6,1.4v8.7c0,0.5-0.2,0.8-0.6,0.8c-0.3,0-0.4-0.1-0.5-0.4s-0.2-0.7-0.4-1.4
			c-0.4-1.1-0.9-2.1-1.4-3.2c-0.5-1.1-1.1-1.9-1.8-2.7c-0.7-0.8-1.6-1.4-2.6-1.9c-1-0.5-2.1-0.7-3.5-0.7c-1.4,0-2.6,0.4-3.6,1.2
			c-0.9,0.8-1.4,2.1-1.4,3.8c0,1.1,0.4,2.1,1.4,2.9c0.9,0.8,2,1.6,3.3,2.3c1.3,0.7,2.7,1.4,4.3,2.1c1.6,0.6,3,1.4,4.3,2.3
			c1.3,0.9,2.4,1.8,3.3,2.9c0.9,1.1,1.4,2.5,1.4,4.1c0,1.3-0.2,2.5-0.8,3.6c-0.5,1.1-1.3,2.1-2.3,3c-1.1,0.9-2.3,1.6-3.9,2
			c-1.6,0.5-3.4,0.8-5.6,0.8c-1.9,0-3.7-0.1-5.4-0.4c-1.7-0.2-3.5-0.7-5.4-1.4v-10.1c0-0.9,0.2-1.2,0.6-1.2c0.2,0,0.4,0.1,0.5,0.4
			c0.1,0.2,0.4,0.9,0.6,1.8c0.9,3,2.3,5.4,4.1,7.1c1.8,1.7,4,2.6,6.5,2.6c1.1,0,1.9-0.1,2.7-0.5c0.7-0.4,1.4-0.8,1.8-1.4
			c0.5-0.6,0.9-1.2,1.1-1.8c0.2-0.7,0.4-1.4,0.4-2.1c0-1.1-0.4-2.1-1.4-2.9s-2-1.6-3.3-2.1c-1.3-0.6-2.7-1.3-4.3-1.8
			c-1.6-0.6-3-1.4-4.3-2.1c-1.3-0.9-2.4-1.8-3.3-2.9C1034.3,657.9,1033.8,656.5,1033.8,654.8z"/>
		<path class="st0" d="M1062.3,663c0-2.6,0.4-4.9,1.3-7c0.9-2.1,2-3.8,3.5-5.3c1.4-1.5,3.1-2.6,5-3.5c1.9-0.9,4-1.2,6.1-1.2
			c1.8,0,3.4,0.3,5,0.8c1.6,0.5,3.1,1.3,4.3,2.1c1.2,0.9,2.2,2,3,3.3s1.1,2.7,1.1,4.2c0,1.6-0.4,2.8-1.1,3.6
			c-0.7,0.7-1.6,1.1-2.7,1.1c-0.9,0-1.6-0.4-2.3-0.9c-0.7-0.6-1.1-1.8-1.1-3.5c0-0.8,0.1-1.4,0.2-1.8s0.2-0.9,0.2-1.6
			c0-1.6-0.6-2.8-1.8-3.9c-1.2-1.1-2.9-1.6-5.2-1.6c-1.4,0-2.6,0.3-3.8,0.9c-1.2,0.6-2.2,1.4-3.1,2.5c-0.9,1.1-1.6,2.3-2.1,3.8
			c-0.6,1.5-0.9,3.1-0.9,4.8c0,2,0.3,3.8,0.9,5.5c0.6,1.7,1.4,3.1,2.4,4.4c1.1,1.2,2.3,2.2,3.8,2.8c1.5,0.7,3.1,1.1,5,1.1
			c1.5,0,3-0.3,4.5-0.9c1.5-0.6,2.8-1.4,3.8-2.3c0.5-0.4,0.9-0.9,1.2-1.2c0.3-0.4,0.5-0.8,0.7-1.1c0.2-0.3,0.4-0.6,0.5-0.7
			c0.1-0.2,0.3-0.3,0.5-0.3c0.4,0,0.6,0.2,0.6,0.8c0,0.5-0.2,1.3-0.8,2.4c-0.5,1.1-1.3,2.3-2.4,3.6c-1.1,1.2-2.6,2.3-4.4,3.2
			c-1.8,0.9-4,1.4-6.6,1.4c-2.1,0-4.1-0.4-5.9-1.2c-1.8-0.8-3.5-1.8-4.8-3.2c-1.4-1.4-2.5-2.9-3.3-4.8
			C1062.6,667.2,1062.3,665.2,1062.3,663z"/>
		<path class="st0" d="M1107,652.2c0.9-0.6,1.7-1.3,2.7-2c0.9-0.8,2-1.4,3.1-2.1c1.1-0.6,2.2-1.1,3.5-1.6c1.2-0.4,2.5-0.6,3.8-0.6
			c2.8,0,4.8,0.6,6,2c1.2,1.4,1.8,3,1.8,5v19.8c0,1.1,0.3,1.8,0.8,2.2c0.5,0.4,1.1,0.6,1.8,0.8c0.6,0.1,1.2,0.2,1.8,0.3
			c0.5,0.1,0.8,0.4,0.8,0.9c0,0.6-0.4,0.9-1.1,0.9c-0.9,0-1.8,0-2.8-0.1s-2.4-0.1-4.3-0.1c-1.8,0-3.3,0-4.3,0.1
			c-1,0.1-1.9,0.1-2.8,0.1c-0.7,0-1.1-0.3-1.1-0.9c0-0.5,0.3-0.7,0.8-0.9c0.5-0.1,1.1-0.2,1.8-0.3c0.6-0.1,1.2-0.4,1.8-0.8
			c0.5-0.4,0.8-1.1,0.8-2.2V654c0-1.5-0.4-2.6-1.1-3.3c-0.7-0.8-1.8-1.2-3.6-1.2c-2,0-3.7,0.4-5.2,1.2c-1.5,0.8-3.1,2-4.7,3.5v18.6
			c0,1.1,0.3,1.8,0.8,2.2c0.5,0.4,1.1,0.6,1.8,0.8c0.6,0.1,1.2,0.2,1.8,0.3c0.5,0.1,0.8,0.4,0.8,0.9c0,0.6-0.4,0.9-1.1,0.9
			c-0.9,0-1.8,0-2.8-0.1s-2.4-0.1-4.3-0.1c-1.8,0-3.3,0-4.3,0.1s-1.9,0.1-2.8,0.1c-0.7,0-1.1-0.3-1.1-0.9c0-0.5,0.3-0.7,0.8-0.9
			c0.5-0.1,1.1-0.2,1.8-0.3c0.6-0.1,1.2-0.4,1.8-0.8c0.5-0.4,0.8-1.1,0.8-2.2v-37.2c0-1.1-0.3-1.9-0.9-2.3c-0.6-0.4-1.2-0.7-1.8-0.9
			c-0.7-0.1-1.3-0.3-1.8-0.3c-0.6-0.1-0.9-0.3-0.9-0.7c0-0.4,0.1-0.5,0.5-0.6c0.4-0.1,0.9-0.2,1.8-0.4c0.9-0.1,2.1-0.4,3.6-0.9
			c1.5-0.4,3.4-1.1,5.8-2L1107,652.2L1107,652.2z"/>
		<path class="st0" d="M1142.1,654.1c0-1.2-0.3-2.1-0.9-2.6c-0.6-0.5-1.2-0.8-1.8-0.9c-0.6-0.1-1.3-0.4-1.8-0.4s-0.9-0.4-0.9-0.8
			c0-0.4,0.2-0.5,0.8-0.6c0.5-0.1,1.2-0.2,2.2-0.4c1-0.2,2.1-0.4,3.6-0.8c1.4-0.4,3.1-0.9,5-1.8v8.9h0.1c0.8-1.8,1.6-3.3,2.3-4.5
			c0.8-1.1,1.6-2.1,2.3-2.7c0.8-0.6,1.6-1.1,2.3-1.4c0.8-0.2,1.6-0.4,2.3-0.4c1.4,0,2.4,0.4,3.1,0.9c0.7,0.6,1.1,1.6,1.1,2.7
			c0,1.1-0.4,1.9-1.1,2.5c-0.7,0.6-1.5,0.9-2.5,0.9c-0.6,0-1.1-0.1-1.4-0.2c-0.3-0.1-0.6-0.4-0.9-0.6c-0.3-0.2-0.6-0.4-0.9-0.6
			c-0.4-0.2-0.9-0.3-1.5-0.3c-1.5,0-2.8,1.1-3.9,3.2c-1.1,2.1-1.7,5-1.7,8.8v9.5c0,1.1,0.3,1.8,0.8,2.2c0.5,0.4,1.1,0.6,1.8,0.8
			c0.6,0.1,1.2,0.2,1.8,0.3c0.5,0.1,0.8,0.4,0.8,0.9c0,0.6-0.4,0.9-1.1,0.9c-0.9,0-1.8,0-2.8-0.1s-2.4-0.1-4.3-0.1
			c-1.8,0-3.3,0-4.3,0.1c-1,0.1-1.9,0.1-2.8,0.1c-0.7,0-1.1-0.3-1.1-0.9c0-0.5,0.3-0.7,0.8-0.9c0.5-0.1,1.1-0.2,1.8-0.3
			c0.6-0.1,1.2-0.4,1.8-0.8c0.5-0.4,0.8-1.1,0.8-2.2L1142.1,654.1L1142.1,654.1z"/>
		<path class="st0" d="M1175.7,672.8c0,1.1,0.3,1.8,0.8,2.2c0.5,0.4,1.1,0.6,1.8,0.8c0.6,0.1,1.2,0.2,1.8,0.3
			c0.5,0.1,0.8,0.4,0.8,0.9c0,0.6-0.4,0.9-1.1,0.9c-0.9,0-1.8,0-2.8-0.1c-1-0.1-2.4-0.1-4.3-0.1s-3.3,0-4.3,0.1
			c-1,0.1-1.9,0.1-2.8,0.1c-0.7,0-1.1-0.3-1.1-0.9c0-0.5,0.3-0.7,0.8-0.9c0.5-0.1,1.1-0.2,1.8-0.3c0.6-0.1,1.2-0.4,1.8-0.8
			c0.5-0.4,0.8-1.1,0.8-2.2v-18.9c0-1.1-0.3-1.9-0.8-2.3c-0.5-0.4-1.1-0.7-1.8-0.9c-0.6-0.2-1.2-0.3-1.8-0.3
			c-0.5-0.1-0.8-0.3-0.8-0.7c0-0.4,0.1-0.5,0.4-0.6c0.3-0.1,0.9-0.2,1.6-0.4c0.8-0.1,2-0.4,3.4-0.9c1.5-0.4,3.4-1.1,5.8-2v26.9
			H1175.7z M1172.1,641.3c-1.3,0-2.2-0.4-2.8-1.1c-0.6-0.7-0.9-1.6-0.9-2.7c0-1.1,0.3-2.1,0.9-2.7c0.6-0.7,1.6-1.1,2.8-1.1
			c1.3,0,2.2,0.4,2.8,1.1c0.6,0.7,0.9,1.6,0.9,2.7c0,1.1-0.3,2.1-0.9,2.7C1174.3,640.9,1173.4,641.3,1172.1,641.3z"/>
		<path class="st0" d="M1201.4,649.5h-6.3v23.3c0,1.1,0.3,1.8,0.8,2.2c0.5,0.4,1.1,0.6,1.8,0.8c0.6,0.1,1.2,0.2,1.8,0.3
			c0.5,0.1,0.8,0.4,0.8,0.9c0,0.6-0.4,0.9-1.1,0.9c-0.9,0-1.8,0-2.8-0.1c-1-0.1-2.4-0.1-4.3-0.1s-3.3,0-4.3,0.1
			c-1,0.1-1.9,0.1-2.8,0.1c-0.7,0-1.1-0.3-1.1-0.9c0-0.5,0.3-0.7,0.8-0.9c0.5-0.1,1.1-0.2,1.8-0.3c0.6-0.1,1.2-0.4,1.8-0.8
			c0.5-0.4,0.8-1.1,0.8-2.2v-23.3h-5c0.9-0.4,1.7-0.7,2.3-1.2s1.2-1.2,1.7-2.1c0.5-0.9,1-2,1.4-3.4c0.5-1.4,1-3.2,1.6-5.4
			c0.4-1.5,0.9-2.8,1.4-4.3c0.5-1.4,1.1-2.6,1.8-3.6s1.5-1.8,2.4-2.5s2-0.9,3.1-0.9c0.9,0,1.8,0.1,2.5,0.5s1.3,0.7,1.7,1.3
			c0.5,0.5,0.8,1.1,1.1,1.8c0.2,0.6,0.4,1.4,0.4,2.1c0,1.4-0.4,2.5-1.1,3.3c-0.7,0.9-1.5,1.3-2.5,1.3c-0.7,0-1.4-0.3-1.8-0.8
			c-0.5-0.5-0.8-1.4-0.8-2.7c0-0.7,0.1-1.3,0.3-1.8c0.2-0.5,0.3-1,0.3-1.5s-0.1-0.9-0.4-1.3c-0.3-0.4-0.7-0.5-1.2-0.5
			c-0.6,0-1.2,0.2-1.6,0.7c-0.5,0.5-0.9,1.1-1.2,1.8c-0.4,0.8-0.6,1.6-0.8,2.6c-0.2,1-0.3,2-0.3,2.9c0,1.9,0.1,3.8,0.4,5.5
			c0.3,1.8,0.6,3.5,0.8,5h7.2L1201.4,649.5z"/>
		<path class="st0" d="M1223.3,649.8h-8V669c0,2.3,0.5,3.8,1.4,4.7c0.9,0.9,2.3,1.2,3.9,1.2c0.9,0,1.8-0.2,2.3-0.6
			c0.6-0.4,1.1-0.8,1.6-1.2c0.4-0.4,0.8-0.8,1.1-1.2c0.3-0.4,0.5-0.6,0.8-0.6c0.4,0,0.5,0.2,0.5,0.6c0,0.2-0.2,0.6-0.6,1.3
			c-0.4,0.6-0.9,1.4-1.7,2.1c-0.8,0.7-1.8,1.4-3,2c-1.2,0.6-2.7,0.9-4.3,0.9c-2.7,0-4.7-0.8-6-2.3c-1.4-1.6-2-3.8-2-6.8v-19.2h-4.7
			v-0.1c2.6-1.5,4.9-3.4,6.7-5.7c1.8-2.3,3.1-4.8,4-7.6h0.1v10.2h9.2L1223.3,649.8z"/>
		<path class="st0" d="M946.4,649.8h-8V669c0,2.3,0.5,3.8,1.4,4.7c0.9,0.9,2.3,1.2,3.9,1.2c0.9,0,1.8-0.2,2.3-0.6
			c0.6-0.4,1.1-0.8,1.6-1.2s0.8-0.8,1.1-1.2c0.3-0.4,0.5-0.6,0.8-0.6c0.4,0,0.5,0.2,0.5,0.6c0,0.2-0.2,0.6-0.6,1.3
			c-0.4,0.6-0.9,1.4-1.7,2.1c-0.8,0.7-1.8,1.4-3,2c-1.2,0.6-2.7,0.9-4.3,0.9c-2.7,0-4.7-0.8-6-2.3c-1.4-1.6-2-3.8-2-6.8v-19.2h-4.7
			v-0.1c2.6-1.5,4.9-3.4,6.7-5.7c1.8-2.3,3.1-4.8,4-7.6h0.1v10.2h9.2L946.4,649.8z"/>
		<path class="st0" d="M1264.8,670.8l4-8.5c0.7-1.5,1.3-2.7,1.6-3.8c0.4-1.1,0.8-2,1.1-2.8c0.2-0.8,0.4-1.5,0.5-2.1
			c0.1-0.6,0.1-1.2,0.1-1.7c0-1.4-0.2-2.3-0.6-2.8c-0.4-0.6-0.9-0.9-1.4-1.1c-0.5-0.2-0.9-0.3-1.3-0.4c-0.4-0.1-0.6-0.2-0.6-0.6
			c0-0.5,0.5-0.8,1.5-0.8c0.5,0,1.1,0,2,0.1c0.9,0.1,1.8,0.1,2.8,0.1c0.9,0,1.6,0,2.4-0.1c0.7-0.1,1.4-0.1,2.1-0.1
			c0.9,0,1.4,0.2,1.4,0.6c0,0.2-0.1,0.4-0.5,0.6c-0.4,0.1-0.8,0.4-1.3,0.7c-0.5,0.4-1.1,0.8-1.7,1.4c-0.6,0.6-1.2,1.5-1.8,2.6
			l-12.1,25.4c-0.1,0.3-0.3,0.5-0.4,0.7c-0.1,0.2-0.3,0.3-0.5,0.3c-0.4,0-0.6-0.4-0.9-0.9l-11-27.1c-0.4-0.9-0.9-1.6-1.3-2
			c-0.5-0.4-0.9-0.6-1.3-0.8c-0.4-0.1-0.8-0.2-1.1-0.3c-0.3-0.1-0.4-0.3-0.4-0.6c0-0.2,0.1-0.4,0.2-0.4c0.1-0.1,0.4-0.1,0.6-0.1
			c0.6,0,1.5,0,2.7,0.1s2.3,0.1,3.3,0.1c0.5,0,1,0,1.6,0s1.2,0,1.8,0c0.6,0,1.1,0,1.6,0s0.9,0,1.2,0c0.9,0,1.3,0.2,1.3,0.8
			c0,0.3-0.2,0.4-0.6,0.5c-0.4,0.1-0.9,0.1-1.4,0.3c-0.5,0.1-0.9,0.3-1.3,0.6c-0.4,0.3-0.6,0.7-0.6,1.4c0,0.4,0.1,0.6,0.1,0.9
			c0.1,0.3,0.2,0.6,0.3,0.8L1264.8,670.8z"/>
		<path class="st0" d="M1298.8,678.2c-2.3,0-4.4-0.4-6.3-1.4c-1.9-0.9-3.6-2.1-5-3.6c-1.4-1.5-2.5-3.2-3.3-5.1
			c-0.8-1.9-1.2-4-1.2-6.1c0-2.1,0.4-4.1,1.2-6.1s1.9-3.7,3.3-5.1c1.4-1.5,3.1-2.6,5-3.6c1.9-0.9,4.1-1.4,6.3-1.4s4.4,0.4,6.3,1.4
			c1.9,0.9,3.6,2.1,5,3.6c1.4,1.5,2.5,3.2,3.3,5.1c0.8,2,1.2,4,1.2,6.1c0,2.1-0.4,4.2-1.2,6.1c-0.8,1.9-1.9,3.6-3.3,5.1
			c-1.4,1.5-3.1,2.6-5,3.6C1303.2,677.7,1301.1,678.2,1298.8,678.2z M1298.8,676.5c1.7,0,3.1-0.4,4.3-1.2c1.2-0.9,2.1-1.9,2.9-3.3
			s1.3-2.9,1.6-4.6c0.4-1.8,0.5-3.6,0.5-5.3c0-1.8-0.1-3.6-0.5-5.3c-0.4-1.8-0.9-3.3-1.6-4.6c-0.8-1.4-1.7-2.4-2.9-3.3
			c-1.2-0.9-2.6-1.2-4.3-1.2c-1.8,0-3.2,0.4-4.3,1.2c-1.1,0.9-2.1,1.9-2.8,3.3c-0.8,1.4-1.3,2.9-1.6,4.6c-0.4,1.8-0.5,3.6-0.5,5.3
			c0,1.8,0.1,3.6,0.5,5.3c0.4,1.8,0.9,3.3,1.6,4.6c0.8,1.4,1.7,2.4,2.8,3.3C1295.6,676.1,1297,676.5,1298.8,676.5z"/>
		<path class="st0" d="M1335.6,678.2c-2.3,0-4.4-0.4-6.3-1.4s-3.6-2.1-5-3.6c-1.4-1.5-2.5-3.2-3.3-5.1c-0.8-1.9-1.2-4-1.2-6.1
			c0-2.1,0.4-4.1,1.2-6.1s1.9-3.7,3.3-5.1c1.4-1.5,3.1-2.6,5-3.6c1.9-0.9,4.1-1.4,6.3-1.4c2.3,0,4.4,0.4,6.3,1.4
			c1.9,0.9,3.6,2.1,5,3.6c1.4,1.5,2.5,3.2,3.3,5.1c0.8,2,1.2,4,1.2,6.1c0,2.1-0.4,4.2-1.2,6.1c-0.8,1.9-1.9,3.6-3.3,5.1
			c-1.4,1.5-3.1,2.6-5,3.6S1337.9,678.2,1335.6,678.2z M1335.6,676.5c1.7,0,3.1-0.4,4.3-1.2c1.2-0.9,2.1-1.9,2.9-3.3
			s1.3-2.9,1.6-4.6c0.4-1.8,0.5-3.6,0.5-5.3c0-1.8-0.1-3.6-0.5-5.3c-0.4-1.8-0.9-3.3-1.6-4.6c-0.8-1.4-1.7-2.4-2.9-3.3
			c-1.2-0.9-2.6-1.2-4.3-1.2c-1.8,0-3.2,0.4-4.3,1.2c-1.1,0.9-2.1,1.9-2.8,3.3c-0.8,1.4-1.3,2.9-1.6,4.6c-0.4,1.8-0.5,3.6-0.5,5.3
			c0,1.8,0.1,3.6,0.5,5.3c0.4,1.8,0.9,3.3,1.6,4.6c0.8,1.4,1.7,2.4,2.8,3.3C1332.4,676.1,1333.8,676.5,1335.6,676.5z"/>
		<path class="st0" d="M1361.6,654.1c0-1.2-0.3-2.1-0.9-2.6c-0.6-0.5-1.2-0.8-1.8-0.9c-0.7-0.2-1.3-0.4-1.8-0.4
			c-0.6-0.1-0.9-0.4-0.9-0.8c0-0.4,0.2-0.5,0.8-0.6c0.5-0.1,1.2-0.2,2.2-0.4c1-0.2,2.1-0.4,3.6-0.8c1.4-0.4,3.1-0.9,5-1.8v8.9h0.1
			c0.8-1.8,1.6-3.3,2.3-4.5c0.8-1.1,1.6-2.1,2.3-2.7c0.8-0.6,1.6-1.1,2.3-1.4c0.8-0.2,1.6-0.4,2.3-0.4c1.4,0,2.4,0.4,3.1,0.9
			c0.7,0.6,1.1,1.6,1.1,2.7c0,1.1-0.4,1.9-1.1,2.5c-0.7,0.6-1.5,0.9-2.5,0.9c-0.6,0-1.1-0.1-1.4-0.2c-0.3-0.1-0.6-0.4-0.9-0.6
			c-0.3-0.2-0.6-0.4-0.9-0.6c-0.4-0.2-0.9-0.3-1.5-0.3c-1.5,0-2.8,1.1-3.9,3.2c-1.1,2.1-1.7,5-1.7,8.8v9.5c0,1.1,0.3,1.8,0.8,2.2
			c0.5,0.4,1.1,0.6,1.8,0.8c0.6,0.1,1.2,0.2,1.8,0.3c0.5,0.1,0.8,0.4,0.8,0.9c0,0.6-0.4,0.9-1.1,0.9c-0.9,0-1.8,0-2.8-0.1
			c-1-0.1-2.4-0.1-4.3-0.1s-3.3,0-4.3,0.1s-1.9,0.1-2.8,0.1c-0.7,0-1.1-0.3-1.1-0.9c0-0.5,0.3-0.7,0.8-0.9c0.5-0.1,1.1-0.2,1.8-0.3
			c0.6-0.1,1.2-0.4,1.8-0.8c0.5-0.4,0.8-1.1,0.8-2.2V654.1L1361.6,654.1z"/>
		<path class="st0" d="M1407.8,635.5c0-1.1-0.3-1.9-0.9-2.3s-1.1-0.7-1.8-0.9c-0.6-0.2-1.2-0.3-1.8-0.3c-0.6-0.1-0.9-0.3-0.9-0.7
			c0-0.4,0.1-0.5,0.4-0.6c0.3-0.1,0.9-0.2,1.7-0.4c0.9-0.1,2-0.4,3.5-0.9c1.5-0.4,3.4-1.1,5.8-2v34.8l6.3-4.8c1.9-1.5,3.3-2.8,4.1-4
			c0.8-1.2,1.2-2.1,1.2-2.8c0-1.1-0.2-1.8-0.8-2.1c-0.5-0.4-1.1-0.6-1.6-0.7c-0.6-0.1-1.1-0.2-1.6-0.2s-0.8-0.2-0.8-0.6
			c0-0.5,0.6-0.8,1.7-0.8c0.9,0,1.8,0,2.9,0.1c1.1,0.1,2.1,0.1,3.1,0.1c1.1,0,2.2,0,3.3-0.1c1.1-0.1,2.1-0.1,3.2-0.1
			c0.8,0,1.2,0.2,1.2,0.7c0,0.4-0.1,0.6-0.5,0.6c-0.4,0-0.8,0.1-1.4,0.1c-0.6,0.1-1.3,0.3-2.1,0.6s-1.7,1-2.7,2l-5.8,5.7l10.3,17.8
			c0.6,0.9,1.1,1.5,1.7,1.8c0.6,0.2,1.1,0.4,1.6,0.5c0.5,0.1,0.9,0.1,1.3,0.1c0.4,0.1,0.5,0.4,0.5,0.9c0,0.5-0.4,0.7-1.1,0.7
			c-0.5,0-1.6,0-3.1-0.1c-1.6-0.1-3.3-0.1-5-0.1s-3.1,0-4,0.1c-0.9,0.1-1.7,0.1-2.3,0.1s-0.9-0.2-0.9-0.7c0-0.6,0.2-0.9,0.6-0.9
			c0.4-0.1,0.9-0.1,1.4-0.2c0.5-0.1,1-0.2,1.4-0.4c0.4-0.2,0.6-0.7,0.6-1.4c0-0.2-0.1-0.6-0.3-1c-0.2-0.4-0.4-0.9-0.6-1.2l-6.6-11.9
			l-5.5,4.3v8.6c0,1.1,0.3,1.8,0.8,2.2c0.5,0.4,1.1,0.6,1.8,0.8s1.2,0.2,1.8,0.3c0.5,0.1,0.8,0.4,0.8,0.9c0,0.6-0.4,0.9-1.1,0.9
			c-0.9,0-1.8,0-2.8-0.1s-2.4-0.1-4.3-0.1s-3.3,0-4.3,0.1c-1,0.1-1.9,0.1-2.8,0.1c-0.7,0-1.1-0.3-1.1-0.9c0-0.5,0.3-0.7,0.8-0.9
			c0.5-0.1,1.1-0.2,1.8-0.3c0.6-0.1,1.2-0.4,1.8-0.8c0.5-0.4,0.8-1.1,0.8-2.2L1407.8,635.5L1407.8,635.5z"/>
		<path class="st0" d="M1465.9,672.1c-0.9,0.6-1.7,1.3-2.7,2c-0.9,0.7-2,1.4-3.1,2s-2.2,1.1-3.5,1.5c-1.2,0.4-2.5,0.6-3.8,0.6
			c-2.8,0-4.8-0.6-6-2s-1.8-3-1.8-5v-16.9c0-1.2-0.3-2.1-0.9-2.6c-0.6-0.5-1.2-0.8-1.8-0.9c-0.6-0.1-1.3-0.4-1.8-0.4
			s-0.9-0.4-0.9-0.8c0-0.4,0.2-0.5,0.8-0.6c0.5-0.1,1.2-0.2,2.2-0.4c1-0.2,2.1-0.4,3.6-0.8c1.4-0.4,3.1-0.9,5-1.8V670
			c0,1.5,0.4,2.6,1.1,3.3c0.7,0.8,1.8,1.2,3.6,1.2c2,0,3.7-0.4,5.2-1.1c1.5-0.7,3.1-1.7,4.7-3.1v-16.3c0-1.2-0.3-2.1-0.9-2.6
			c-0.6-0.5-1.2-0.8-1.8-0.9c-0.6-0.1-1.3-0.4-1.8-0.4s-0.9-0.4-0.9-0.8c0-0.4,0.2-0.5,0.8-0.6c0.5-0.1,1.2-0.2,2.2-0.4
			c1-0.2,2.1-0.4,3.6-0.8c1.4-0.4,3.1-0.9,5-1.8v24c0,1.2,0.3,2.1,0.9,2.6c0.6,0.5,1.2,0.8,1.8,0.9c0.6,0.1,1.3,0.3,1.8,0.4
			s0.9,0.4,0.9,0.8c0,0.4-0.2,0.5-0.8,0.6c-0.5,0.1-1.2,0.2-2.2,0.4c-1,0.2-2.1,0.4-3.6,0.8c-1.4,0.4-3.1,0.9-5,1.8L1465.9,672.1
			L1465.9,672.1z"/>
		<path class="st0" d="M1491.4,652.2c0.9-0.6,1.7-1.3,2.7-2c1-0.7,2-1.4,3.1-2.1c1.1-0.6,2.2-1.1,3.5-1.6c1.2-0.4,2.5-0.6,3.8-0.6
			c2.8,0,4.8,0.6,6,2c1.2,1.4,1.8,3,1.8,5v19.8c0,1.1,0.3,1.8,0.8,2.2c0.5,0.4,1.1,0.6,1.8,0.8c0.6,0.1,1.2,0.2,1.8,0.3
			c0.5,0.1,0.8,0.4,0.8,0.9c0,0.6-0.4,0.9-1.1,0.9c-0.9,0-1.8,0-2.8-0.1s-2.4-0.1-4.3-0.1c-1.8,0-3.3,0-4.3,0.1s-1.9,0.1-2.8,0.1
			c-0.7,0-1.1-0.3-1.1-0.9c0-0.5,0.3-0.7,0.8-0.9c0.5-0.1,1.1-0.2,1.8-0.3c0.6-0.1,1.2-0.4,1.8-0.8c0.5-0.4,0.8-1.1,0.8-2.2V654
			c0-1.5-0.4-2.6-1.1-3.3c-0.7-0.8-1.8-1.2-3.6-1.2c-2,0-3.7,0.4-5.2,1.2c-1.5,0.8-3.1,2-4.7,3.5v18.6c0,1.1,0.3,1.8,0.8,2.2
			c0.5,0.4,1.1,0.6,1.8,0.8c0.6,0.1,1.2,0.2,1.8,0.3c0.5,0.1,0.8,0.4,0.8,0.9c0,0.6-0.4,0.9-1.1,0.9c-0.9,0-1.8,0-2.8-0.1
			s-2.4-0.1-4.3-0.1c-1.8,0-3.3,0-4.3,0.1s-1.9,0.1-2.8,0.1c-0.7,0-1.1-0.3-1.1-0.9c0-0.5,0.3-0.7,0.8-0.9c0.5-0.1,1.1-0.2,1.8-0.3
			c0.6-0.1,1.2-0.4,1.8-0.8c0.5-0.4,0.8-1.1,0.8-2.2v-18.9c0-1.1-0.3-1.9-0.8-2.3c-0.5-0.4-1.1-0.7-1.8-0.9
			c-0.6-0.1-1.2-0.3-1.8-0.3c-0.5-0.1-0.8-0.3-0.8-0.7c0-0.4,0.1-0.5,0.4-0.6c0.3-0.1,0.9-0.2,1.7-0.4c0.9-0.1,2-0.4,3.4-0.9
			c1.5-0.4,3.3-1.1,5.7-2L1491.4,652.2L1491.4,652.2z"/>
		<path class="st0" d="M1522.2,654.8c0-1.1,0.2-2.2,0.7-3.3c0.5-1.1,1.2-2,2.1-2.8c0.9-0.9,2.1-1.5,3.5-2c1.3-0.5,2.9-0.7,4.7-0.7
			c1.6,0,3.3,0.2,5.3,0.6c1.8,0.4,3.4,0.9,4.6,1.4v8.7c0,0.5-0.2,0.8-0.6,0.8c-0.3,0-0.4-0.1-0.5-0.4c-0.1-0.3-0.2-0.7-0.4-1.4
			c-0.4-1.1-0.9-2.1-1.3-3.2c-0.5-1.1-1.1-1.9-1.8-2.7c-0.7-0.8-1.6-1.4-2.6-1.9c-1-0.5-2.1-0.7-3.5-0.7c-1.4,0-2.6,0.4-3.6,1.2
			c-0.9,0.8-1.4,2.1-1.4,3.8c0,1.1,0.4,2.1,1.4,2.9c0.9,0.9,2,1.6,3.3,2.3c1.3,0.7,2.7,1.4,4.3,2.1c1.6,0.6,3,1.4,4.3,2.3
			c1.3,0.9,2.4,1.8,3.3,2.9c0.9,1.1,1.4,2.5,1.4,4.1c0,1.3-0.2,2.5-0.8,3.6c-0.5,1.1-1.3,2.1-2.3,3c-1.1,0.9-2.3,1.6-3.9,2
			c-1.6,0.5-3.4,0.8-5.6,0.8c-1.9,0-3.7-0.1-5.4-0.4c-1.7-0.2-3.5-0.7-5.4-1.4v-10.1c0-0.9,0.2-1.2,0.6-1.2c0.2,0,0.4,0.1,0.5,0.4
			c0.1,0.2,0.4,0.9,0.6,1.8c0.9,3,2.3,5.4,4.1,7.1c1.8,1.7,4,2.6,6.5,2.6c1.1,0,1.9-0.1,2.7-0.5c0.7-0.4,1.4-0.8,1.8-1.4
			c0.5-0.6,0.9-1.2,1.1-1.8c0.2-0.6,0.4-1.4,0.4-2.1c0-1.1-0.4-2.1-1.4-2.9s-2-1.6-3.3-2.1c-1.3-0.6-2.7-1.3-4.3-1.8
			c-1.6-0.6-3-1.4-4.3-2.1c-1.3-0.9-2.4-1.8-3.3-2.9C1522.7,657.9,1522.2,656.5,1522.2,654.8z"/>
		<path class="st0" d="M1568.4,649.8h-8V669c0,2.3,0.5,3.8,1.4,4.7c0.9,0.9,2.3,1.2,3.9,1.2c0.9,0,1.8-0.2,2.3-0.6
			c0.6-0.4,1.1-0.8,1.6-1.2c0.4-0.4,0.8-0.8,1.1-1.2c0.3-0.4,0.5-0.6,0.8-0.6c0.4,0,0.5,0.2,0.5,0.6c0,0.2-0.2,0.6-0.6,1.3
			c-0.4,0.6-0.9,1.4-1.7,2.1c-0.8,0.7-1.8,1.4-3,2c-1.2,0.6-2.7,0.9-4.3,0.9c-2.7,0-4.7-0.8-6-2.3c-1.3-1.6-2-3.8-2-6.8v-19.2h-4.7
			v-0.1c2.6-1.5,4.9-3.4,6.7-5.7s3.1-4.8,4-7.6h0.1v10.2h9.2L1568.4,649.8z"/>
		<path class="st0" d="M1599.9,660.5c0.1,1.8,0.3,3.4,0.7,5s1.1,2.9,2,4.1c0.9,1.2,2.1,2.1,3.6,2.8s3.3,1.1,5.4,1.1
			c1.5,0,2.8-0.1,3.9-0.5c1.1-0.4,2.2-0.9,3.2-1.6c0.6-0.4,1.1-0.9,1.4-1.3s0.6-0.9,0.9-1.2c0.2-0.4,0.4-0.6,0.6-0.9
			c0.1-0.2,0.4-0.3,0.6-0.3c0.4,0,0.6,0.2,0.6,0.8c0,0.4-0.2,1-0.7,2.1c-0.5,1.1-1.2,2.1-2.3,3.3c-1.1,1.1-2.5,2.1-4.3,3
			c-1.8,0.9-4,1.4-6.6,1.4c-2.1,0-4-0.4-5.8-1.2c-1.8-0.8-3.4-1.8-4.8-3.2c-1.4-1.4-2.5-3-3.3-5c-0.9-1.9-1.2-4-1.2-6.3
			c0-2.1,0.4-4.1,1.1-6.1s1.8-3.8,3.2-5.3s3-2.8,5-3.8c1.9-0.9,4.1-1.4,6.3-1.4c2.2,0,4.2,0.4,5.9,1.3c1.6,0.9,3.1,2,4.1,3.3
			c1.1,1.4,1.9,2.9,2.5,4.7c0.6,1.8,0.9,3.5,0.9,5.3L1599.9,660.5L1599.9,660.5z M1616.5,658.8c0-4.2-0.6-7.2-1.8-9
			c-1.3-1.8-3.1-2.7-5.3-2.7c-1.2,0-2.4,0.3-3.6,0.9c-1.1,0.6-2.1,1.4-3,2.5c-0.9,1.1-1.6,2.3-2.1,3.7c-0.5,1.4-0.9,2.9-0.9,4.6
			L1616.5,658.8L1616.5,658.8z"/>
		<path class="st0" d="M1638.5,652.2c0.9-0.6,1.7-1.3,2.7-2c1-0.7,2-1.4,3.1-2.1c1.1-0.6,2.2-1.1,3.5-1.6c1.2-0.4,2.5-0.6,3.8-0.6
			c2.8,0,4.8,0.6,6,2c1.2,1.4,1.8,3,1.8,5v19.8c0,1.1,0.3,1.8,0.8,2.2c0.5,0.4,1.1,0.6,1.8,0.8c0.6,0.1,1.2,0.2,1.8,0.3
			c0.5,0.1,0.8,0.4,0.8,0.9c0,0.6-0.4,0.9-1.1,0.9c-0.9,0-1.8,0-2.8-0.1s-2.4-0.1-4.3-0.1s-3.3,0-4.3,0.1s-1.9,0.1-2.8,0.1
			c-0.7,0-1.1-0.3-1.1-0.9c0-0.5,0.3-0.7,0.8-0.9c0.5-0.1,1.1-0.2,1.8-0.3c0.6-0.1,1.2-0.4,1.8-0.8c0.5-0.4,0.8-1.1,0.8-2.2V654
			c0-1.5-0.4-2.6-1.1-3.3s-1.8-1.2-3.6-1.2c-2,0-3.7,0.4-5.2,1.2c-1.5,0.8-3.1,2-4.7,3.5v18.6c0,1.1,0.3,1.8,0.8,2.2
			c0.5,0.4,1.1,0.6,1.8,0.8c0.6,0.1,1.2,0.2,1.8,0.3c0.5,0.1,0.8,0.4,0.8,0.9c0,0.6-0.4,0.9-1.1,0.9c-0.9,0-1.8,0-2.8-0.1
			s-2.4-0.1-4.3-0.1c-1.8,0-3.3,0-4.3,0.1s-1.9,0.1-2.8,0.1c-0.7,0-1.1-0.3-1.1-0.9c0-0.5,0.3-0.7,0.8-0.9c0.5-0.1,1.1-0.2,1.8-0.3
			c0.6-0.1,1.2-0.4,1.8-0.8c0.5-0.4,0.8-1.1,0.8-2.2v-18.9c0-1.1-0.3-1.9-0.8-2.3c-0.5-0.4-1.1-0.7-1.8-0.9
			c-0.6-0.1-1.2-0.3-1.8-0.3c-0.5-0.1-0.8-0.3-0.8-0.7c0-0.4,0.1-0.5,0.4-0.6c0.3-0.1,0.9-0.2,1.7-0.4c0.9-0.1,2-0.4,3.4-0.9
			c1.5-0.4,3.3-1.1,5.7-2L1638.5,652.2L1638.5,652.2z"/>
		<path class="st0" d="M1687.6,663c0-2.6,0.4-4.9,1.3-7s2-3.8,3.5-5.3c1.4-1.5,3.1-2.6,5-3.5c1.9-0.9,4-1.2,6.1-1.2
			c1.8,0,3.4,0.3,5,0.8c1.6,0.5,3.1,1.3,4.3,2.1s2.2,2,3,3.3c0.8,1.3,1.1,2.7,1.1,4.2c0,1.6-0.4,2.8-1.1,3.6
			c-0.7,0.7-1.6,1.1-2.7,1.1c-0.9,0-1.6-0.4-2.3-0.9c-0.7-0.6-1.1-1.8-1.1-3.5c0-0.8,0.1-1.4,0.2-1.8c0.1-0.4,0.2-0.9,0.2-1.6
			c0-1.6-0.6-2.8-1.8-3.9c-1.2-1.1-2.9-1.6-5.2-1.6c-1.4,0-2.6,0.3-3.8,0.9c-1.2,0.6-2.2,1.4-3.1,2.5c-0.9,1.1-1.6,2.3-2.1,3.8
			c-0.6,1.5-0.9,3.1-0.9,4.8c0,2,0.3,3.8,0.9,5.5c0.6,1.7,1.4,3.1,2.4,4.4c1.1,1.3,2.3,2.2,3.8,2.8c1.5,0.7,3.1,1.1,5,1.1
			c1.5,0,3-0.3,4.5-0.9c1.5-0.6,2.8-1.4,3.8-2.3c0.5-0.4,0.9-0.9,1.2-1.2c0.3-0.4,0.5-0.8,0.7-1.1c0.2-0.3,0.4-0.6,0.5-0.7
			c0.1-0.2,0.3-0.3,0.5-0.3c0.4,0,0.6,0.2,0.6,0.8c0,0.5-0.2,1.3-0.8,2.4c-0.5,1.1-1.3,2.3-2.4,3.6c-1.1,1.2-2.6,2.3-4.4,3.2
			c-1.8,0.9-4,1.4-6.6,1.4c-2.1,0-4.1-0.4-5.9-1.2c-1.8-0.9-3.5-1.8-4.8-3.2c-1.3-1.4-2.5-2.9-3.3-4.8
			C1688.1,667.2,1687.6,665.2,1687.6,663z"/>
		<path class="st0" d="M1746.3,672.1c-0.9,0.6-1.7,1.3-2.7,2c-0.9,0.7-2,1.4-3.1,2c-1.1,0.6-2.2,1.1-3.5,1.5
			c-1.2,0.4-2.5,0.6-3.8,0.6c-2.8,0-4.8-0.6-6-2s-1.8-3-1.8-5v-16.9c0-1.2-0.3-2.1-0.9-2.6c-0.6-0.5-1.2-0.8-1.8-0.9
			c-0.7-0.2-1.3-0.4-1.8-0.4s-0.9-0.4-0.9-0.8c0-0.4,0.2-0.5,0.8-0.6c0.5-0.1,1.2-0.2,2.2-0.4c1-0.2,2.1-0.4,3.6-0.8
			c1.4-0.4,3.1-0.9,5-1.8V670c0,1.5,0.4,2.6,1.1,3.3c0.7,0.8,1.8,1.2,3.6,1.2c2,0,3.7-0.4,5.2-1.1c1.5-0.7,3.1-1.7,4.7-3.1v-16.3
			c0-1.2-0.3-2.1-0.9-2.6c-0.6-0.5-1.2-0.8-1.8-0.9c-0.7-0.2-1.3-0.4-1.8-0.4s-0.9-0.4-0.9-0.8c0-0.4,0.2-0.5,0.8-0.6
			c0.5-0.1,1.2-0.2,2.2-0.4c1-0.2,2.1-0.4,3.6-0.8c1.4-0.4,3.1-0.9,5-1.8v24c0,1.2,0.3,2.1,0.9,2.6c0.6,0.5,1.2,0.8,1.8,0.9
			c0.7,0.1,1.3,0.3,1.8,0.4s0.9,0.4,0.9,0.8c0,0.4-0.2,0.5-0.8,0.6c-0.5,0.1-1.2,0.2-2.2,0.4c-1,0.2-2.1,0.4-3.6,0.8s-3.1,0.9-5,1.8
			L1746.3,672.1L1746.3,672.1z"/>
		<path class="st0" d="M1771.3,672.8c0,1.1,0.3,1.8,0.8,2.2c0.5,0.4,1.1,0.6,1.8,0.8c0.6,0.1,1.2,0.2,1.8,0.3
			c0.5,0.1,0.8,0.4,0.8,0.9c0,0.6-0.4,0.9-1.1,0.9c-0.9,0-1.8,0-2.8-0.1s-2.4-0.1-4.3-0.1c-1.8,0-3.3,0-4.3,0.1s-1.9,0.1-2.8,0.1
			c-0.7,0-1.1-0.3-1.1-0.9c0-0.5,0.3-0.7,0.8-0.9c0.5-0.1,1.1-0.2,1.8-0.3c0.6-0.1,1.2-0.4,1.8-0.8c0.5-0.4,0.8-1.1,0.8-2.2v-37.3
			c0-1.1-0.3-1.9-0.9-2.3s-1.2-0.7-1.8-0.9c-0.6-0.2-1.3-0.3-1.8-0.3c-0.6-0.1-0.9-0.3-0.9-0.7c0-0.4,0.1-0.5,0.5-0.6
			c0.4-0.1,0.9-0.2,1.8-0.4c0.9-0.1,2.1-0.4,3.6-0.9c1.5-0.4,3.4-1.1,5.8-2L1771.3,672.8L1771.3,672.8z"/>
		<path class="st0" d="M1798.1,649.8h-8V669c0,2.3,0.5,3.8,1.4,4.7c0.9,0.9,2.3,1.2,3.9,1.2c0.9,0,1.8-0.2,2.3-0.6
			c0.6-0.4,1.1-0.8,1.6-1.2c0.4-0.4,0.8-0.8,1.1-1.2c0.3-0.4,0.5-0.6,0.8-0.6c0.4,0,0.5,0.2,0.5,0.6c0,0.2-0.2,0.6-0.6,1.3
			c-0.4,0.6-0.9,1.4-1.7,2.1c-0.8,0.7-1.8,1.4-3,2c-1.2,0.6-2.7,0.9-4.3,0.9c-2.7,0-4.7-0.8-6-2.3c-1.4-1.6-2-3.8-2-6.8v-19.2h-4.7
			v-0.1c2.6-1.5,4.9-3.4,6.7-5.7c1.8-2.3,3.1-4.8,4-7.6h0.1v10.2h9.2L1798.1,649.8z"/>
		<path class="st0" d="M1828.8,672.1c-0.9,0.6-1.7,1.3-2.7,2c-0.9,0.7-2,1.4-3.1,2s-2.2,1.1-3.5,1.5c-1.2,0.4-2.5,0.6-3.8,0.6
			c-2.8,0-4.8-0.6-6-2s-1.8-3-1.8-5v-16.9c0-1.2-0.3-2.1-0.9-2.6c-0.6-0.5-1.2-0.8-1.8-0.9c-0.7-0.2-1.3-0.4-1.8-0.4
			c-0.6-0.1-0.9-0.4-0.9-0.8c0-0.4,0.2-0.5,0.8-0.6c0.5-0.1,1.2-0.2,2.2-0.4c1-0.2,2.1-0.4,3.6-0.8c1.4-0.4,3.1-0.9,5-1.8V670
			c0,1.5,0.4,2.6,1.1,3.3c0.7,0.8,1.8,1.2,3.6,1.2c2,0,3.7-0.4,5.2-1.1c1.5-0.7,3.1-1.7,4.7-3.1v-16.3c0-1.2-0.3-2.1-0.9-2.6
			c-0.6-0.5-1.2-0.8-1.8-0.9c-0.7-0.2-1.3-0.4-1.8-0.4s-0.9-0.4-0.9-0.8c0-0.4,0.2-0.5,0.8-0.6c0.5-0.1,1.2-0.2,2.2-0.4
			c1-0.2,2.1-0.4,3.6-0.8c1.4-0.4,3.1-0.9,5-1.8v24c0,1.2,0.3,2.1,0.9,2.6c0.6,0.5,1.2,0.8,1.8,0.9c0.7,0.1,1.3,0.3,1.8,0.4
			s0.9,0.4,0.9,0.8c0,0.4-0.2,0.5-0.8,0.6c-0.5,0.1-1.2,0.2-2.2,0.4c-1,0.2-2.1,0.4-3.6,0.8s-3.1,0.9-5,1.8L1828.8,672.1
			L1828.8,672.1z"/>
		<path class="st0" d="M1868.1,672.1c-0.9,0.6-1.7,1.3-2.7,2c-0.9,0.7-2,1.4-3.1,2c-1.1,0.6-2.2,1.1-3.5,1.5
			c-1.2,0.4-2.5,0.6-3.8,0.6c-2.8,0-4.8-0.6-6-2c-1.2-1.4-1.8-3-1.8-5v-16.9c0-1.2-0.3-2.1-0.9-2.6c-0.6-0.5-1.2-0.8-1.8-0.9
			c-0.6-0.1-1.3-0.4-1.8-0.4s-0.9-0.4-0.9-0.8c0-0.4,0.2-0.5,0.8-0.6c0.5-0.1,1.2-0.2,2.2-0.4c1-0.2,2.1-0.4,3.6-0.8
			c1.4-0.4,3.1-0.9,5-1.8V670c0,1.5,0.4,2.6,1.1,3.3c0.7,0.8,1.8,1.2,3.6,1.2c2,0,3.7-0.4,5.2-1.1c1.5-0.7,3.1-1.7,4.7-3.1v-16.3
			c0-1.2-0.3-2.1-0.9-2.6c-0.6-0.5-1.2-0.8-1.8-0.9c-0.6-0.1-1.3-0.4-1.8-0.4s-0.9-0.4-0.9-0.8c0-0.4,0.2-0.5,0.8-0.6
			c0.5-0.1,1.2-0.2,2.2-0.4c1-0.2,2.1-0.4,3.6-0.8c1.4-0.4,3.1-0.9,5-1.8v24c0,1.2,0.3,2.1,0.9,2.6c0.6,0.5,1.2,0.8,1.8,0.9
			c0.7,0.1,1.3,0.3,1.8,0.4s0.9,0.4,0.9,0.8c0,0.4-0.2,0.5-0.8,0.6c-0.5,0.1-1.2,0.2-2.2,0.4c-1,0.2-2.1,0.4-3.6,0.8
			c-1.4,0.4-3.1,0.9-5,1.8L1868.1,672.1L1868.1,672.1z"/>
		<path class="st0" d="M1888,654.1c0-1.2-0.3-2.1-0.9-2.6c-0.6-0.5-1.2-0.8-1.8-0.9c-0.6-0.1-1.3-0.4-1.8-0.4s-0.9-0.4-0.9-0.8
			c0-0.4,0.2-0.5,0.8-0.6c0.5-0.1,1.2-0.2,2.2-0.4c1-0.2,2.1-0.4,3.6-0.8c1.4-0.4,3.1-0.9,5-1.8v8.9h0.1c0.8-1.8,1.6-3.3,2.3-4.5
			c0.8-1.1,1.6-2.1,2.3-2.7s1.6-1.1,2.3-1.4c0.8-0.2,1.6-0.4,2.3-0.4c1.4,0,2.4,0.4,3.1,0.9c0.7,0.6,1.1,1.6,1.1,2.7
			c0,1.1-0.4,1.9-1.1,2.5c-0.7,0.6-1.5,0.9-2.5,0.9c-0.6,0-1.1-0.1-1.4-0.2c-0.3-0.1-0.6-0.4-0.9-0.6c-0.3-0.2-0.6-0.4-0.9-0.6
			c-0.4-0.2-0.9-0.3-1.5-0.3c-1.5,0-2.8,1.1-3.9,3.2c-1.1,2.1-1.7,5-1.7,8.8v9.5c0,1.1,0.3,1.8,0.8,2.2c0.5,0.4,1.1,0.6,1.8,0.8
			c0.6,0.1,1.2,0.2,1.8,0.3c0.5,0.1,0.8,0.4,0.8,0.9c0,0.6-0.4,0.9-1.1,0.9c-0.9,0-1.8,0-2.8-0.1s-2.4-0.1-4.3-0.1
			c-1.8,0-3.3,0-4.3,0.1s-1.9,0.1-2.8,0.1c-0.7,0-1.1-0.3-1.1-0.9c0-0.5,0.3-0.7,0.8-0.9c0.5-0.1,1.1-0.2,1.8-0.3
			c0.6-0.1,1.2-0.4,1.8-0.8c0.5-0.4,0.8-1.1,0.8-2.2L1888,654.1L1888,654.1z"/>
	</g>
	<g>
		<path class="st0" d="M410.6,668.1h0.1l7.3-23.4c0.6-1.7,1-5,1-7.1c0-6.8-5.3-5-5.3-6.5c0-0.7,0.5-0.9,1.8-0.9
			c1.1,0,2.8,0.1,5.5,0.1c3.3,0,5.8-0.1,7-0.1c1.5,0,2,0.1,2,0.9c0,1.5-5.4-0.8-8.8,9.6l-11.4,34.7c-0.5,1.4-0.9,2.6-1.6,2.6
			c-0.7,0-1.1-1.1-1.6-2.6l-9.5-28.2h-0.1l-8.5,28.2c-0.4,1.4-0.8,2.6-1.5,2.6c-0.7,0-1.1-1.1-1.6-2.6L372.2,637
			c-2.3-6.5-6.5-4.5-6.5-5.9c0-0.4,0.3-0.8,1.1-0.8c0.9,0,2.4,0.1,7.2,0.1c3.2,0,6.6-0.1,7.7-0.1c0.9,0,1.1,0.3,1.1,0.8
			c0,1.1-4.7,0.5-4.7,3.7c0,1.1,0.6,2.8,1.1,4.2l10.2,28.6h0.1l6.5-22.7l-3.2-9.3c-1.5-4.3-5.5-3.1-5.5-4.4c0-0.7,0.5-0.9,1.4-0.9
			c2.2,0,4.7,0.1,6.6,0.1c2.8,0,6.6-0.1,7.9-0.1c0.9,0,1,0.2,1,0.7c0,1.6-4.4-0.1-4.4,3.3c0,2.6,0.8,4.6,1.3,6.2L410.6,668.1z"/>
		<path class="st0" d="M433.4,659.8c0.1,6.8,3.1,12.9,11.7,12.9c2.9,0,5-0.7,7-2.1c2.5-1.7,2.6-3.6,3.4-3.6c0.4,0,0.6,0.3,0.6,0.8
			c0,1.3-3.3,9.7-13.8,9.7c-8.2,0-15.2-6.5-15.2-15.6c0-8.4,6.3-16.6,15.6-16.6c8.9,0,13.3,7.3,13.3,14.5H433.4L433.4,659.8z
			 M449.9,658.1c0-8.5-2.6-11.7-7.2-11.7c-4.9,0-9.4,5.1-9.5,11.7H449.9z"/>
		<path class="st0" d="M479.3,649h-8v19.2c0,4.5,2.1,5.9,5.3,5.9c3.8,0,4.7-3.4,5.7-3.4c0.3,0,0.5,0.2,0.5,0.6
			c0,0.8-2.8,6.2-9.6,6.2c-5.3,0-8.1-3.3-8.1-9.2v-19.2h-4.7V649c5.3-3,9-7.7,10.7-13.3h0.1v10.2h9.2L479.3,649z"/>
		<path class="st0" d="M491.7,659.8c0.1,6.8,3.1,12.9,11.7,12.9c2.9,0,5-0.7,7-2.1c2.5-1.7,2.6-3.6,3.4-3.6c0.4,0,0.6,0.3,0.6,0.8
			c0,1.3-3.3,9.7-13.8,9.7c-8.2,0-15.2-6.5-15.2-15.6c0-8.4,6.3-16.6,15.6-16.6c8.9,0,13.3,7.3,13.3,14.5H491.7L491.7,659.8z
			 M508.3,658.1c0-8.5-2.6-11.7-7.2-11.7c-4.9,0-9.4,5.1-9.5,11.7H508.3z"/>
		<path class="st0" d="M530.4,651.5c3.3-2.5,7.8-6.3,12.9-6.3c5.5,0,7.7,3,7.7,7V672c0,4.3,5,2.3,5,4.1c0,0.6-0.4,0.9-1.1,0.9
			c-1.7,0-3.3-0.1-7-0.1c-3.8,0-5.3,0.1-7,0.1c-0.8,0-1.1-0.2-1.1-0.9c0-1.8,5,0.2,5-4.1v-18.7c0-2.8-1.1-4.5-4.7-4.5
			c-3.9,0-6.6,1.6-9.9,4.7v18.6c0,4.3,5,2.3,5,4.1c0,0.6-0.4,0.9-1.1,0.9c-1.7,0-3.3-0.1-7-0.1s-5.3,0.1-7,0.1
			c-0.8,0-1.1-0.2-1.1-0.9c0-1.8,5,0.2,5-4.1v-18.9c0-4.6-5-2.7-5-4.3c0-1.2,1.8-0.1,11.2-3.7L530.4,651.5L530.4,651.5z"/>
		<path class="st0" d="M572.3,645.2c3.1,0,7.5,0.9,9.9,2.1v8.7c0,0.6-0.2,0.8-0.6,0.8c-0.6,0-0.6-0.6-0.9-1.8
			c-1.6-4.4-3.9-8.5-9.2-8.5c-2.8,0-5,1.6-5,5c0,6.8,17.8,7,17.8,16.6c0,5.1-4.1,9.4-12.6,9.4c-3.8,0-7-0.4-10.8-1.7v-10.1
			c0-0.9,0.2-1.2,0.6-1.2c0.4,0,0.6,0.4,1.1,2.1c1.8,6,5.7,9.7,10.5,9.7c4.2,0,5.9-3,5.9-5.8c0-7-17.8-6.1-17.8-16.3
			C561.2,649.5,565.2,645.2,572.3,645.2z"/>
		<path class="st0" d="M605.5,645.2c6.9,0,13.4,4.4,13.4,10.4c0,3.3-1.6,4.6-3.8,4.6c-1.7,0-3.3-1.1-3.3-4.5c0-1.5,0.4-2.1,0.4-3.3
			c0-3.1-2.5-5.5-7-5.5c-5.2,0-9.9,5-9.9,12c0,7.9,4.7,13.8,12,13.8c3,0,6.3-1.4,8.3-3.1c2-1.7,2.1-3.3,2.8-3.3
			c0.4,0,0.6,0.2,0.6,0.8c0,1.8-3.8,10.4-14.1,10.4c-8.5,0-15.2-6.5-15.2-15.2C589.6,652,597,645.2,605.5,645.2z"/>
		<path class="st0" d="M634.3,651.5c3.3-2.5,7.8-6.3,12.9-6.3c5.5,0,7.7,3,7.7,7V672c0,4.3,5,2.3,5,4.1c0,0.6-0.4,0.9-1.1,0.9
			c-1.7,0-3.3-0.1-7-0.1c-3.8,0-5.3,0.1-7,0.1c-0.8,0-1.1-0.2-1.1-0.9c0-1.8,5,0.2,5-4.1v-18.7c0-2.8-1.1-4.5-4.7-4.5
			c-3.9,0-6.6,1.6-9.9,4.7v18.6c0,4.3,5,2.3,5,4.1c0,0.6-0.4,0.9-1.1,0.9c-1.7,0-3.3-0.1-7-0.1c-3.8,0-5.3,0.1-7,0.1
			c-0.8,0-1.1-0.2-1.1-0.9c0-1.8,5,0.2,5-4.1v-37.2c0-4.6-5.5-2.7-5.5-4.3c0-1.2,2.3-0.1,11.7-3.7L634.3,651.5L634.3,651.5z"/>
		<path class="st0" d="M689.6,672.6c0,1.2,0.7,1.9,1.8,1.9c1.9,0,3.2-2.3,3.8-2.3c0.3,0,0.6,0.2,0.6,0.6c0,0.6-3.7,4.6-7.3,4.6
			c-3.3,0-4.7-2.8-4.8-5c-4.1,3.3-8.2,5-11.6,5c-4.5,0-7.3-2.8-7.3-6.7c0-4.4,2.3-6.5,18.8-12.9v-8c0-2.1-1.2-2.9-3.3-2.9
			c-8.2,0-4.7,10.9-12.1,10.9c-1.3,0-2.3-1.2-2.3-2.8c0-4.2,9.5-9.7,15.9-9.7c4.8,0,8,2.2,8,7L689.6,672.6L689.6,672.6z
			 M683.4,659.5c-9.9,3.5-12.2,5.6-12.2,10c0,4,1.5,5.5,3.8,5.5c1.4,0,4.5-0.9,8.4-4.3V659.5z"/>
		<path class="st0" d="M708.4,650.8c3.1-2.9,6.3-5.6,10.9-5.6c7,0,12.5,6.3,12.5,14.4c0,10.4-7.7,17.8-16.4,17.8
			c-2.8,0-5.8-0.4-7-0.9v9c0,4.3,4.9,2.3,4.9,4c0,0.4-0.3,0.6-1,0.6c-2.6,0-4.8-0.1-7-0.1c-2.2,0-4.4,0.1-7,0.1c-0.8,0-1-0.1-1-0.6
			c0-1.7,4.9,0.4,4.9-4v-32.5c0-4.6-5.2-2.7-5.2-4.3c0-1.2,1.8-0.1,11.4-3.7L708.4,650.8L708.4,650.8z M708.4,669
			c0,4.9,3.3,7.2,7,7.2c6,0,10.3-5.8,10.3-15.3c0-5.5-2.7-12.1-9.4-12.1c-3,0-5.2,1.4-7.9,3.7V669z"/>
		<path class="st0" d="M746.5,650.8c3.1-2.9,6.3-5.6,10.9-5.6c7,0,12.5,6.3,12.5,14.4c0,10.4-7.7,17.8-16.4,17.8
			c-2.8,0-5.8-0.4-7-0.9v9c0,4.3,4.9,2.3,4.9,4c0,0.4-0.3,0.6-1,0.6c-2.6,0-4.8-0.1-7-0.1s-4.4,0.1-7,0.1c-0.8,0-1-0.1-1-0.6
			c0-1.7,4.9,0.4,4.9-4v-32.5c0-4.6-5.2-2.7-5.2-4.3c0-1.2,1.8-0.1,11.4-3.7L746.5,650.8L746.5,650.8z M746.5,669
			c0,4.9,3.3,7.2,7,7.2c6,0,10.3-5.8,10.3-15.3c0-5.5-2.7-12.1-9.4-12.1c-3,0-5.2,1.4-7.9,3.7L746.5,669L746.5,669z"/>
		<path class="st0" d="M780.9,659.8c0.1,6.8,3.1,12.9,11.7,12.9c2.9,0,5-0.7,7-2.1c2.5-1.7,2.6-3.6,3.4-3.6c0.4,0,0.6,0.3,0.6,0.8
			c0,1.3-3.3,9.7-13.8,9.7c-8.2,0-15.2-6.5-15.2-15.6c0-8.4,6.3-16.6,15.6-16.6c8.9,0,13.3,7.3,13.3,14.5H780.9L780.9,659.8z
			 M797.5,658.1c0-8.5-2.6-11.7-7.2-11.7c-4.9,0-9.4,5.1-9.5,11.7H797.5z"/>
		<path class="st0" d="M819.2,672.1c0,4.3,5,2.3,5,4.1c0,0.6-0.4,0.9-1.1,0.9c-1.7,0-3.3-0.1-7-0.1c-3.8,0-5.3,0.1-7,0.1
			c-0.8,0-1.1-0.2-1.1-0.9c0-1.8,5,0.2,5-4.1v-37.2c0-4.6-5.5-2.7-5.5-4.3c0-1.2,2.1-0.1,11.7-3.7L819.2,672.1L819.2,672.1z"/>
		<path class="st0" d="M838.8,672.1c0,4.3,5,2.3,5,4.1c0,0.6-0.4,0.9-1.1,0.9c-1.7,0-3.3-0.1-7-0.1c-3.8,0-5.3,0.1-7,0.1
			c-0.8,0-1.1-0.2-1.1-0.9c0-1.8,5,0.2,5-4.1v-18.9c0-4.6-5-2.7-5-4.3c0-1.2,1.7-0.1,11.2-3.7L838.8,672.1L838.8,672.1z
			 M831.4,636.8c0-2.3,1.2-3.8,3.8-3.8c2.6,0,3.8,1.5,3.8,3.8s-1.2,3.8-3.8,3.8C832.6,640.6,831.4,639.1,831.4,636.8z"/>
		<path class="st0" d="M860.4,678.7c0,10.4-7.4,12.7-11.3,12.7c-4.3,0-6.8-2.3-6.8-4.8c0-1.6,1.2-3,3-3c5.2,0,2.8,5.9,6.3,5.9
			c2.1,0,4.3-1.6,4.3-3.8c0-1.5-1.6-4-1.6-7v-25.4c0-4.6-5-2.7-5-4.3c0-1.2,1.7-0.1,11.2-3.7L860.4,678.7L860.4,678.7z M853,636.8
			c0-2.3,1.2-3.8,3.8-3.8c2.6,0,3.8,1.5,3.8,3.8s-1.2,3.8-3.8,3.8S853,639.1,853,636.8z"/>
		<path class="st0" d="M873,634.8c0-4.6-5.2-2.7-5.2-4.3c0-1.2,1.8-0.1,11.4-3.7v34.8l6.3-4.8c3.8-2.9,5.3-5.5,5.3-6.8
			c0-4.3-4.8-2.1-4.8-3.6c0-0.6,0.6-0.8,1.7-0.8c1.8,0,4,0.1,6.1,0.1c2.2,0,4.4-0.1,6.5-0.1c0.7,0,1.1,0.2,1.1,0.7
			c0,1.4-2.6-0.6-6.6,3.3l-5.8,5.7l10.3,17.8c2.1,3.6,5.2,1.2,5.2,3.2c0,0.4-0.4,0.7-1.1,0.7c-1,0-4.5-0.1-8.2-0.1
			c-3.4,0-5,0.1-6.3,0.1c-0.6,0-0.9-0.2-0.9-0.7c0-2.1,4.2-0.1,4.2-3c0-0.4-0.5-1.4-0.9-2.2l-6.6-11.9l-5.5,4.3v8.6
			c0,4.3,5,2.3,5,4.1c0,0.6-0.4,0.9-1.1,0.9c-1.7,0-3.3-0.1-7-0.1c-3.8,0-5.3,0.1-7,0.1c-0.8,0-1.1-0.2-1.1-0.9c0-1.8,5,0.2,5-4.1
			v-37.3H873z"/>
	</g>
</g>
</svg>
